<svg xmlns="http://www.w3.org/2000/svg" xmlns:xlink="http://www.w3.org/1999/xlink" preserveAspectRatio="xMidYMid" width="512" height="512" viewBox="0 0 512 512">
  <defs>
    <style>
      .cls-1 {
        fill: #007dde;
        fill-rule: evenodd;
      }
    </style>
  </defs>
  <g>
    <path d="M457.015,256.829 C457.015,360.314 372.776,444.244 269.000,444.948 C269.000,444.948 253.692,444.948 256.000,444.948 C187.606,444.948 153.045,359.881 194.000,359.881 L272.000,359.881 C325.767,358.703 373.000,309.917 373.000,255.799 C373.000,200.942 324.789,152.718 270.000,152.718 C301.450,152.718 238.681,152.718 194.000,152.718 C184.868,152.718 177.023,145.529 177.023,136.386 L177.023,85.207 C177.023,76.064 184.425,68.652 193.557,68.652 C193.759,68.652 193.955,68.675 194.155,68.683 C208.626,68.682 256.836,68.679 268.338,68.667 C372.571,68.841 457.015,153.015 457.015,256.829 ZM268.338,68.667 C268.230,68.667 269.494,68.666 268.338,68.667 Z" class="cls-1"/>
    <path d="M153.000,363.384 C153.000,363.673 153.019,363.958 153.022,364.246 C153.033,365.096 153.053,365.944 153.086,366.788 C154.127,398.660 169.677,426.847 193.360,444.946 L183.636,444.940 C182.900,444.954 182.171,444.995 181.432,444.995 C119.337,444.995 69.000,394.595 69.000,332.424 L69.000,176.737 L153.000,176.737 L153.000,355.878 C153.000,355.878 153.000,357.780 153.000,362.884 C153.000,362.986 153.005,363.088 153.005,363.190 C153.005,363.255 153.000,363.319 153.000,363.384 Z" class="cls-1"/>
    <path d="M69.000,85.666 C69.000,76.523 76.403,68.652 85.534,68.652 L136.648,68.652 C145.779,68.652 153.000,76.523 153.000,85.666 L153.000,152.718 L69.000,152.718 L69.000,85.666 Z" class="cls-1"/>
  </g>
</svg>
